<svg viewBox="0 0 760 620" xmlns="http://www.w3.org/2000/svg" role="img" aria-label="St Albans seating chart"><defs><linearGradient id="sg" x1="0" y1="0" x2="0" y2="1"><stop offset="0%" stop-color="#FFD767"/><stop offset="100%" stop-color="#B07F1F"/></linearGradient><linearGradient id="st" x1="0" y1="0" x2="0" y2="1"><stop offset="0%" stop-color="#58a89d"/><stop offset="100%" stop-color="#1b463f"/></linearGradient><linearGradient id="sn" x1="0" y1="0" x2="0" y2="1"><stop offset="0%" stop-color="#7a7264"/><stop offset="100%" stop-color="#3d3830"/></linearGradient><linearGradient id="ss" x1="0" y1="0" x2="0" y2="1"><stop offset="0%" stop-color="#7a4f1a"/><stop offset="100%" stop-color="#3d2810"/></linearGradient><linearGradient id="sa" x1="0" y1="0" x2="0" y2="1"><stop offset="0%" stop-color="#2a2a2a"/><stop offset="100%" stop-color="#1c1c1c"/></linearGradient></defs><rect x="22" y="22" width="716" height="576" rx="10" fill="none" stroke="rgba(250,250,247,0.10)"/><rect x="150" y="40" width="460" height="70" rx="6" fill="url(#ss)"/><text x="380" y="82" text-anchor="middle" font-family="Inter,sans-serif" font-size="20" font-weight="700" letter-spacing="10" fill="#f6e2b2">STAGE</text><rect x="140" y="128" width="480" height="10" rx="2" fill="#5a3d1a"/><text x="630" y="134" text-anchor="end" font-family="Inter,sans-serif" font-size="9" font-weight="700" letter-spacing="0.14em" fill="#FFBF20">FRONT RAIL</text><rect x="372" y="155" width="36" height="410" fill="url(#sa)"/><circle cx="140" cy="312" r="3" fill="#FFBF20"/><circle cx="360" cy="312" r="3" fill="#FFBF20"/><circle cx="420" cy="312" r="3" fill="#FFBF20"/><circle cx="640" cy="312" r="3" fill="#FFBF20"/><line x1="143" y1="312" x2="357" y2="312" stroke="#FFBF20" stroke-width="1.2" stroke-dasharray="2 3"/><line x1="423" y1="312" x2="637" y2="312" stroke="#FFBF20" stroke-width="1.2" stroke-dasharray="2 3"/><circle cx="140" cy="436" r="3" fill="#58a89d"/><circle cx="360" cy="436" r="3" fill="#58a89d"/><circle cx="420" cy="436" r="3" fill="#58a89d"/><circle cx="640" cy="436" r="3" fill="#58a89d"/><line x1="143" y1="436" x2="357" y2="436" stroke="#58a89d" stroke-width="1.2" stroke-dasharray="2 3"/><line x1="423" y1="436" x2="637" y2="436" stroke="#58a89d" stroke-width="1.2" stroke-dasharray="2 3"/><g fill="url(#sg)" stroke="rgba(0,0,0,0.5)" stroke-width="0.4"><rect x="140" y="160" width="220" height="20" rx="2.5"/><rect x="420" y="160" width="220" height="20" rx="2.5"/><rect x="140" y="190" width="220" height="20" rx="2.5"/><rect x="420" y="190" width="220" height="20" rx="2.5"/><rect x="140" y="220" width="220" height="20" rx="2.5"/><rect x="420" y="220" width="220" height="20" rx="2.5"/><rect x="140" y="250" width="220" height="20" rx="2.5"/><rect x="420" y="250" width="220" height="20" rx="2.5"/><rect x="140" y="280" width="220" height="20" rx="2.5"/><rect x="420" y="280" width="220" height="20" rx="2.5"/></g><g fill="url(#st)" stroke="rgba(0,0,0,0.5)" stroke-width="0.4"><rect x="140" y="320" width="220" height="20" rx="2.5"/><rect x="420" y="320" width="220" height="20" rx="2.5"/><rect x="140" y="350" width="220" height="20" rx="2.5"/><rect x="420" y="350" width="220" height="20" rx="2.5"/><rect x="140" y="380" width="220" height="20" rx="2.5"/><rect x="420" y="380" width="220" height="20" rx="2.5"/><rect x="140" y="410" width="220" height="20" rx="2.5"/><rect x="420" y="410" width="220" height="20" rx="2.5"/></g><g fill="url(#sn)" stroke="rgba(0,0,0,0.5)" stroke-width="0.4"><rect x="140" y="444" width="220" height="20" rx="2.5"/><rect x="420" y="444" width="220" height="20" rx="2.5"/><rect x="140" y="474" width="220" height="20" rx="2.5"/><rect x="420" y="474" width="220" height="20" rx="2.5"/><rect x="140" y="504" width="220" height="20" rx="2.5"/><rect x="420" y="504" width="220" height="20" rx="2.5"/><rect x="140" y="534" width="220" height="20" rx="2.5"/><rect x="420" y="534" width="220" height="20" rx="2.5"/><rect x="140" y="564" width="220" height="20" rx="2.5"/><rect x="420" y="564" width="220" height="20" rx="2.5"/></g><g font-family="Inter,sans-serif" font-size="12" font-weight="600" fill="rgba(250,250,247,0.68)"><text x="128" y="174" text-anchor="end">1</text><text x="128" y="204" text-anchor="end">2</text><text x="128" y="234" text-anchor="end">3</text><text x="128" y="264" text-anchor="end">4</text><text x="128" y="294" text-anchor="end">5</text><text x="128" y="334" text-anchor="end">6</text><text x="128" y="364" text-anchor="end">7</text><text x="128" y="394" text-anchor="end">8</text><text x="128" y="424" text-anchor="end">9</text><text x="128" y="458" text-anchor="end">10</text><text x="128" y="488" text-anchor="end">11</text><text x="128" y="518" text-anchor="end">12</text><text x="128" y="548" text-anchor="end">13</text><text x="128" y="578" text-anchor="end">14</text></g><line x1="96" y1="160" x2="96" y2="300" stroke="#FFBF20" stroke-width="4" stroke-linecap="round"/><line x1="96" y1="320" x2="96" y2="430" stroke="#58a89d" stroke-width="4" stroke-linecap="round"/><line x1="96" y1="444" x2="96" y2="584" stroke="#7a7264" stroke-width="4" stroke-linecap="round"/><g><rect x="652" y="58" width="14" height="50" rx="2" fill="#161616" stroke="#FFBF20" stroke-width="1.6"/><circle cx="690" cy="83" r="13" fill="#FFBF20"/><text x="690" y="88" text-anchor="middle" font-family="Inter,sans-serif" font-size="14" font-weight="800" fill="#161616">A</text></g><g><rect x="652" y="500" width="14" height="50" rx="2" fill="#161616" stroke="#FFBF20" stroke-width="1.6"/><circle cx="690" cy="525" r="13" fill="#FFBF20"/><text x="690" y="530" text-anchor="middle" font-family="Inter,sans-serif" font-size="14" font-weight="800" fill="#161616">B</text></g></svg>